<svg viewBox="0 0 1100 739" fill="none" xmlns="http://www.w3.org/2000/svg">
<path d="M1040.46 282.39H1061.17V280.53H1043.17V280.47L1061.17 272.55V270.06H1040.46V271.91H1058.46V272L1040.46 279.92V282.39ZM1050.82 297.56C1044.7 297.56 1041.68 296.05 1041.68 292.83C1041.68 289.61 1044.61 288.04 1050.82 288.04C1057.03 288.04 1059.95 289.58 1059.95 292.8C1059.95 296.02 1057.05 297.56 1050.82 297.56V297.56ZM1040.11 292.8C1040.11 297.21 1043.62 299.41 1050.82 299.41C1058.02 299.41 1061.52 297.21 1061.52 292.8C1061.52 288.39 1057.98 286.19 1050.82 286.19C1043.66 286.19 1040.11 288.42 1040.11 292.8ZM1040.46 305.19H1061.17V303.33H1040.46V305.19ZM1040.46 320.36H1042V315H1061.14V313.14H1042V307.8H1040.43L1040.46 320.36ZM1040.11 328.25C1040.11 332.65 1043.62 334.86 1050.82 334.86C1058.02 334.86 1061.52 332.65 1061.52 328.25C1061.52 324.53 1058.97 322.36 1054.15 322.1V324C1057.98 324.23 1059.95 325.77 1059.95 328.3C1059.95 331.49 1057.05 333.05 1050.82 333.05C1044.59 333.05 1041.68 331.49 1041.68 328.3C1041.68 325.83 1043.42 324.23 1046.5 324.21V322.3C1042.5 322.3 1040.11 324.56 1040.11 328.25V328.25ZM1040.46 348.25H1061.17V337.76H1059.61V346.43H1051.14V338.57H1049.57V346.43H1042V338H1040.43L1040.46 348.25ZM1040.46 361.33H1061.17V350.93H1059.61V359.52H1040.46V361.33ZM1040.46 374.41H1061.17V364H1059.61V372.59H1040.46V374.41ZM1050.82 389.59C1044.7 389.59 1041.68 388.08 1041.68 384.86C1041.68 381.64 1044.61 380.07 1050.82 380.07C1057.03 380.07 1059.95 381.61 1059.95 384.83C1059.95 388.05 1057.05 389.59 1050.82 389.59V389.59ZM1040.11 384.83C1040.11 389.24 1043.62 391.44 1050.82 391.44C1058.02 391.44 1061.52 389.24 1061.52 384.83C1061.52 380.42 1057.98 378.21 1050.82 378.21C1043.66 378.21 1040.11 380.45 1040.11 384.83ZM1040.11 400.61C1040.11 405.02 1043.62 407.22 1050.82 407.22C1058.02 407.22 1061.52 405.02 1061.52 400.61C1061.52 396.9 1058.97 394.72 1054.15 394.46V396.31C1057.98 396.55 1059.95 398.08 1059.95 400.61C1059.95 403.8 1057.05 405.37 1050.82 405.37C1044.59 405.37 1041.68 403.8 1041.68 400.61C1041.68 398.14 1043.42 396.55 1046.5 396.52V394.7C1042.5 394.7 1040.11 396.96 1040.11 400.65V400.61ZM1061.52 425.48V423.91L1040.11 416.83V418.4L1061.52 425.48ZM1040.46 450.16H1061.17V438.3H1057.75V446H1052.18V439H1048.76V446H1043.88V438.6H1040.46V450.16ZM1040.46 464.32H1061.17V460.14H1052.17V453.14H1048.75V460.14H1043.87V452.75H1040.45L1040.46 464.32ZM1040.46 472.32H1061.17V468.14H1040.46V472.32ZM1040.46 486.67H1061.17V475.11H1057.75V482.51H1040.46V486.67ZM1040.46 511.74H1061.17V507.91H1046.67V507.85L1061.17 502.74V498H1040.46V501.83H1054.65V501.88L1040.46 506.93V511.74ZM1040.46 519.74H1061.17V515.56H1040.46V519.74ZM1050.82 533.06C1045.65 533.06 1043.13 532.77 1043.13 530.18C1043.13 527.59 1045.65 527.31 1050.82 527.31C1055.99 527.31 1058.5 527.57 1058.5 530.18C1058.5 532.79 1056.04 533.06 1050.82 533.06ZM1040.06 530.18C1040.06 536.57 1044.73 537.18 1050.82 537.18C1056.91 537.18 1061.58 536.49 1061.58 530.18C1061.58 523.87 1056.97 523.18 1050.82 523.18C1044.67 523.18 1040.06 523.87 1040.06 530.18ZM1040.46 544.43H1055.46C1057.75 544.43 1058.53 544.95 1058.53 546.28C1058.53 547.61 1057.93 548.14 1055.29 548.14H1054.65V552H1055.49C1060.04 552 1061.61 549.88 1061.61 546.52C1061.61 542.02 1059.49 540.28 1055.49 540.28H1040.49L1040.46 544.43Z" fill="#B2B2B2"/>
</svg>
